<?xml version="1.0" standalone="no"?><!DOCTYPE svg PUBLIC "-//W3C//DTD SVG 1.1//EN" "http://www.w3.org/Graphics/SVG/1.1/DTD/svg11.dtd"><svg t="1568904372639" class="icon" viewBox="0 0 1024 1024" version="1.1" xmlns="http://www.w3.org/2000/svg" p-id="2188" xmlns:xlink="http://www.w3.org/1999/xlink" width="200" height="200"><defs><style type="text/css"></style></defs><path d="M977.454545 46.545455H139.636364v232.727272H93.090909c-27.927273 0-46.545455 18.618182-46.545454 46.545455 0 23.272727 18.618182 46.545455 46.545454 46.545454h46.545455v93.090909H93.090909c-23.272727 0-46.545455 18.618182-46.545454 46.545455 0 23.272727 18.618182 46.545455 46.545454 46.545455h46.545455v93.090909H93.090909c-23.272727 0-46.545455 18.618182-46.545454 46.545454 0 23.272727 18.618182 46.545455 46.545454 46.545455h46.545455v232.727272h837.818181V46.545455z m-279.272727 837.818181V139.636364h186.181818v744.727272h-186.181818zM232.727273 279.272727V139.636364h372.363636v744.727272H232.727273v-139.636363h46.545454c23.272727 0 46.545455-18.618182 46.545455-46.545455 0-23.272727-18.618182-46.545455-46.545455-46.545454H232.727273v-93.090909h46.545454c23.272727 0 46.545455-18.618182 46.545455-46.545455 0-23.272727-18.618182-46.545455-46.545455-46.545455H232.727273V372.363636h46.545454c23.272727 0 46.545455-18.618182 46.545455-46.545454 0-23.272727-18.618182-46.545455-46.545455-46.545455H232.727273z" p-id="2189"></path></svg>