<?xml version="1.0" standalone="no"?><!DOCTYPE svg PUBLIC "-//W3C//DTD SVG 1.1//EN" "http://www.w3.org/Graphics/SVG/1.1/DTD/svg11.dtd"><svg t="1568904451386" class="icon" viewBox="0 0 1024 1024" version="1.1" xmlns="http://www.w3.org/2000/svg" p-id="2977" xmlns:xlink="http://www.w3.org/1999/xlink" width="200" height="200"><defs><style type="text/css"></style></defs><path d="M518.33856 309.467136l374.69696-171.543552c-15.804416-27.08992-45.145088-45.145088-79.004672-45.145088h-609.44384c-29.341696 0-56.430592 15.799296-72.229888 38.3744L518.33856 309.467136z m0 0" p-id="2978"></path><path d="M527.367168 354.613248c-2.256896 2.256896-6.770688 2.256896-9.027584 2.256896-2.256896 0-6.770688 0-9.027584-2.256896L116.557824 171.779072v670.3872c0 49.659904 40.63232 90.292224 90.28608 90.292224h609.44384c49.659904 0 90.290176-40.63232 90.290176-90.292224V183.063552L527.367168 354.613248z m94.804992 286.662656c13.5424 0 22.569984 9.027584 22.569984 22.575104 0 13.5424-9.027584 22.569984-22.569984 22.569984h-90.290176v88.029184c0 13.5424-9.027584 22.575104-22.569984 22.575104s-22.569984-9.032704-22.569984-22.575104v-88.029184h-90.292224c-13.5424 0-22.569984-9.027584-22.569984-22.569984 0-13.54752 9.027584-22.575104 22.569984-22.575104h90.292224v-54.17472h-92.54912c-13.5424 0-22.569984-9.027584-22.569984-22.569984s9.027584-22.569984 22.569984-22.569984h67.716096l-74.486784-74.486784c-9.027584-9.032704-9.027584-22.575104 0-31.602688 9.027584-9.028608 22.569984-9.028608 31.602688 0l90.287104 90.28608 90.28608-90.28608c9.027584-9.028608 22.575104-9.028608 31.602688 0 9.028608 9.027584 9.028608 22.569984 0 31.602688l-74.486784 74.486784h67.71712c13.541376 0 22.569984 9.027584 22.569984 22.569984s-9.028608 22.569984-22.569984 22.569984h-92.548096v54.17472h90.289152z m0 0" p-id="2979"></path></svg>