<?xml version="1.0" standalone="no"?><!DOCTYPE svg PUBLIC "-//W3C//DTD SVG 1.1//EN" "http://www.w3.org/Graphics/SVG/1.1/DTD/svg11.dtd"><svg t="1568620194748" class="icon" viewBox="0 0 1024 1024" version="1.1" xmlns="http://www.w3.org/2000/svg" p-id="4340" xmlns:xlink="http://www.w3.org/1999/xlink" width="200" height="200"><defs><style type="text/css"></style></defs><path d="M230.75 563.563h-112.5c-31.026 0-56.25 25.224-56.25 56.25v281.25c0 31.026 25.224 56.25 56.25 56.25h112.5c31.026 0 56.25-25.224 56.25-56.25v-281.25c0-31.026-25.224-56.25-56.25-56.25zM568.25 57.312h-112.5c-31.026 0-56.25 25.224-56.25 56.25v787.5c0 31.026 25.224 56.25 56.25 56.25h112.5c31.026 0 56.25-25.224 56.25-56.25v-787.5c0-31.026-25.224-56.25-56.25-56.25zM905.75 338.562h-112.5c-31.026 0-56.25 25.224-56.25 56.25v506.25c0 31.026 25.224 56.25 56.25 56.25h112.5c31.026 0 56.25-25.224 56.25-56.25v-506.25c0-31.026-25.224-56.25-56.25-56.25z" p-id="4341"></path></svg>