<?xml version="1.0" standalone="no"?><!DOCTYPE svg PUBLIC "-//W3C//DTD SVG 1.1//EN" "http://www.w3.org/Graphics/SVG/1.1/DTD/svg11.dtd"><svg t="1568613054678" class="icon" viewBox="0 0 1024 1024" version="1.1" xmlns="http://www.w3.org/2000/svg" p-id="2824" xmlns:xlink="http://www.w3.org/1999/xlink" width="200" height="200"><defs><style type="text/css"></style></defs><path d="M950.784 899.584L782.336 731.648c64.512-74.752 99.84-168.96 99.84-268.8 0-110.08-43.008-212.992-120.32-290.816S581.12 51.2 471.552 51.2c-110.08 0-212.992 43.008-290.816 120.32-77.824 77.824-120.832 181.248-120.832 291.328s43.008 212.992 120.32 290.816c77.824 77.824 181.248 120.32 290.816 120.32 90.624 0 177.152-29.184 248.32-82.944l169.984 169.984c8.192 8.192 19.456 12.8 30.72 12.8s22.016-4.096 30.72-12.8c16.896-16.896 16.896-44.544 0-61.44zM146.432 462.848c0-179.2 145.92-324.608 324.608-324.608 179.2 0 324.608 145.92 324.608 324.608 0 179.2-145.408 324.608-324.608 324.608s-324.608-145.92-324.608-324.608z" p-id="2825"></path></svg>