<?xml version="1.0" standalone="no"?><!DOCTYPE svg PUBLIC "-//W3C//DTD SVG 1.1//EN" "http://www.w3.org/Graphics/SVG/1.1/DTD/svg11.dtd"><svg t="1565429968312" class="icon" viewBox="0 0 1024 1024" version="1.1" xmlns="http://www.w3.org/2000/svg" p-id="4307" xmlns:xlink="http://www.w3.org/1999/xlink" width="200" height="200"><defs><style type="text/css"></style></defs><path d="M480.453081 124.087882c10.998926 0 19.998047 8.999121 19.998047 19.998047v79.992188h399.960941v575.943756h-399.960941v79.992188c0 10.998926-8.999121 19.998047-19.998047 19.998047h-335.967191c-10.998926 0-19.998047-8.999121-19.998047-19.998047v-735.928132c0-10.998926 8.999121-19.998047 19.998047-19.998047h335.967191m0-59.994141h-335.967191c-44.195684 0-79.992188 35.796504-79.992188 79.992188v735.928132c0 44.195684 35.796504 79.992188 79.992188 79.992188h335.967191c44.195684 0 79.992188-35.796504 79.992188-79.992188v-19.998047h399.960941v-695.932038h-399.960941v-19.998047c0-44.195684-35.796504-79.992188-79.992188-79.992188z" p-id="4308"></path><path d="M560.445269 224.078117h-59.994141v575.943756h59.994141v-575.943756z" p-id="4309"></path><path d="M442.456791 207.079777h-259.974612v59.994142h259.974612v-59.994142z" p-id="4310"></path><path d="M362.464603 317.069036h-179.982424v59.994141h179.982424v-59.994141z" p-id="4311"></path><path d="M442.456791 427.058295h-259.974612v59.994141h259.974612v-59.994141z" p-id="4312"></path><path d="M362.464603 537.047554h-179.982424v59.994141h179.982424v-59.994141z" p-id="4313"></path><path d="M442.456791 647.036813h-259.974612v59.994141h259.974612v-59.994141z" p-id="4314"></path><path d="M362.464603 757.026072h-179.982424v59.994141h179.982424v-59.994141z" p-id="4315"></path><path d="M782.423591 319.068841h-179.982423v59.994141h179.982423v-59.994141z" p-id="4316"></path><path d="M862.41578 429.0581h-259.974612v59.994141h259.974612v-59.994141z" p-id="4317"></path><path d="M782.423591 539.047359h-179.982423v59.994141h179.982423v-59.994141z" p-id="4318"></path><path d="M862.41578 649.036618h-259.974612v59.994141h259.974612v-59.994141z" p-id="4319"></path></svg>