<?xml version="1.0" standalone="no"?><!DOCTYPE svg PUBLIC "-//W3C//DTD SVG 1.1//EN" "http://www.w3.org/Graphics/SVG/1.1/DTD/svg11.dtd"><svg t="1568109664118" class="icon" viewBox="0 0 1102 1024" version="1.1" xmlns="http://www.w3.org/2000/svg" p-id="3251" xmlns:xlink="http://www.w3.org/1999/xlink" width="215.234375" height="200"><defs><style type="text/css"></style></defs><path d="M732.553846 488.369231c23.630769 0 39.384615-15.753846 39.384616-39.384616s-23.630769-31.507692-39.384616-31.507692H582.892308l133.907692-141.784615c15.753846-15.753846 15.753846-39.384615 0-55.138462-7.876923-7.876923-31.507692-7.876923-47.261538 0L551.384615 346.584615 433.230769 220.553846c-15.753846-7.876923-39.384615-7.876923-47.261538 0-15.753846 15.753846-15.753846 39.384615 0 55.138462l133.907692 141.784615H370.215385c-23.630769 0-39.384615 15.753846-39.384616 39.384615s15.753846 39.384615 39.384616 39.384616h141.784615v70.892308H370.215385c-23.630769 0-39.384615 15.753846-39.384616 39.384615 7.876923 7.876923 23.630769 23.630769 39.384616 23.630769h141.784615v133.907692c0 15.753846 15.753846 23.630769 39.384615 23.63077s39.384615-15.753846 39.384616-31.507693V630.153846h141.784615c23.630769 0 39.384615-15.753846 39.384616-39.384615S756.184615 551.384615 732.553846 551.384615H590.769231v-63.015384h141.784615z" p-id="3252"></path><path d="M953.107692 488.369231c0 63.015385 47.261538 110.276923 110.276923 110.276923 23.630769 0 39.384615 15.753846 39.384616 39.384615v220.553846c0 63.015385-47.261538 118.153846-110.276923 118.153847H110.276923c-63.015385 0-110.276923-55.138462-110.276923-118.153847V638.030769c0-23.630769 15.753846-39.384615 39.384615-39.384615 55.138462 0 102.4-47.261538 102.4-110.276923S94.523077 378.092308 39.384615 378.092308c-23.630769 0-39.384615-15.753846-39.384615-39.384616V118.153846C0 55.138462 47.261538 0 110.276923 0h874.338462c70.892308 0 118.153846 47.261538 118.153846 118.153846v220.553846c0 23.630769-15.753846 39.384615-39.384616 39.384616-55.138462 0-110.276923 47.261538-110.276923 110.276923z m70.892308 181.169231c-86.646154-15.753846-149.661538-94.523077-149.661538-181.169231 0-86.646154 63.015385-165.415385 149.661538-181.169231V118.153846c0-23.630769-15.753846-39.384615-31.507692-39.384615H110.276923c-15.753846 0-31.507692 15.753846-31.507692 39.384615v189.046154c86.646154 15.753846 149.661538 94.523077 149.661538 181.169231 0 86.646154-63.015385 165.415385-149.661538 181.169231v189.046153c0 15.753846 15.753846 31.507692 31.507692 31.507693h874.338462c15.753846 0 31.507692-15.753846 31.507692-31.507693l7.876923-189.046153z" p-id="3253"></path></svg>