<?xml version="1.0" standalone="no"?><!DOCTYPE svg PUBLIC "-//W3C//DTD SVG 1.1//EN" "http://www.w3.org/Graphics/SVG/1.1/DTD/svg11.dtd"><svg t="1568109810317" class="icon" viewBox="0 0 1024 1024" version="1.1" xmlns="http://www.w3.org/2000/svg" p-id="4138" xmlns:xlink="http://www.w3.org/1999/xlink" width="200" height="200"><defs><style type="text/css"></style></defs><path d="M218.112 1018.368c-90.624 0-169.984-61.44-193.536-149.504-12.8-48.128-16.896-98.816-12.8-154.624 12.8-180.224 119.296-337.92 279.552-417.792l-1.024-1.024c-34.816-37.376-55.808-82.432-62.464-133.12-8.704-67.584 41.984-114.176 96.768-124.928 27.136-5.632 53.248-3.584 77.824 5.632 30.72-25.088 69.632-38.912 111.104-38.912 41.472 0 80.896 13.824 112.128 39.424 51.2-18.432 98.816-10.752 138.24 22.016 33.792 27.648 44.544 61.952 35.84 114.176l-0.512 2.048c-1.024 3.072-1.536 5.632-2.048 8.192-2.56 9.216-4.608 16.896-9.216 29.696-9.728 26.112-26.624 51.2-51.2 76.288 6.144 3.072 12.288 6.144 17.92 9.728 124.928 70.656 207.36 176.64 245.76 313.856 18.944 69.12 22.528 142.848 10.24 218.112-4.096 24.576-11.776 60.928-34.816 93.184-40.448 57.344-95.744 86.528-164.352 86.528H422.912c-68.096 1.024-136.192 1.024-204.8 1.024z m135.68-943.104c-7.168 0-14.336 0.512-21.504 2.048-34.816 7.168-69.632 34.816-64 79.872 5.632 43.008 22.528 78.848 51.712 110.592 4.096 4.608 8.704 8.704 13.312 13.312l7.168 7.168 19.968 20.48-25.6 12.288c-2.048 1.024-4.096 2.048-5.632 2.56-158.208 70.144-264.192 220.672-276.48 393.728-3.584 51.2 0 97.28 11.776 140.8 18.432 70.144 81.92 118.784 153.6 118.784v20.48l0.512-20.48H811.52c55.296 0 98.304-22.528 131.072-69.12 13.824-19.456 22.528-43.008 27.648-76.288 11.264-69.632 8.192-137.216-9.728-200.704-35.328-126.976-111.104-224.256-226.304-289.28-9.216-5.12-18.432-9.728-28.672-14.336-4.608-2.048-9.216-4.608-13.824-6.656l-16.896-8.704 6.656-16.896c1.024-3.584 3.072-6.656 6.144-9.216l3.072-3.072c1.024-1.024 2.56-2.048 3.584-3.584 27.136-25.088 45.056-49.152 54.272-73.728 4.096-11.264 5.632-17.408 8.192-26.112 0.512-2.048 1.024-4.608 2.048-7.168 6.656-41.984-3.584-59.904-21.504-74.752-18.432-15.36-37.888-22.528-59.392-22.528-13.824 0-28.672 3.072-44.032 9.216-2.56 1.024-6.656 2.56-11.776 2.56-4.608 0-11.264-1.024-17.92-7.168-24.064-22.016-56.832-34.304-91.136-34.304-33.792 0-65.536 11.776-89.6 33.28-8.704 7.68-19.456 9.728-30.208 5.12-12.288-5.12-25.6-8.192-39.424-8.192z" p-id="4139"></path><path d="M650.752 690.688H536.064v-70.144h114.688c14.336 0 26.112-9.216 26.112-20.48s-11.776-20.48-26.112-20.48H547.328l89.088-88.064c9.216-9.216 9.216-23.552 0-32.768-9.216-9.216-23.552-9.216-32.768 0l-89.6 88.576-89.6-89.088c-9.216-9.216-23.552-8.704-32.768 0-9.216 9.216-8.704 23.552 0 32.768l89.088 88.064H377.344c-14.336 0-26.112 9.216-26.112 20.48s11.776 20.48 26.112 20.48h114.688v70.144H377.344c-14.336 0-26.112 9.216-26.112 20.48s11.776 20.48 26.112 20.48h114.688v123.392c0 14.336 9.728 26.112 22.016 26.112 12.288 0 22.016-11.776 22.016-26.112V732.16h114.688c14.336 0 26.112-9.216 26.112-20.48s-11.776-20.992-26.112-20.992z" p-id="4140"></path></svg>