<?xml version="1.0" standalone="no"?><!DOCTYPE svg PUBLIC "-//W3C//DTD SVG 1.1//EN" "http://www.w3.org/Graphics/SVG/1.1/DTD/svg11.dtd"><svg t="1568904545935" class="icon" viewBox="0 0 1024 1024" version="1.1" xmlns="http://www.w3.org/2000/svg" p-id="3880" xmlns:xlink="http://www.w3.org/1999/xlink" width="200" height="200"><defs><style type="text/css"></style></defs><path d="M682.525491 479.744c-16.896-15.872-33.792-31.744-50.688-48.128l-38.912-35.84c-10.24-9.728-16.384-15.36-18.432-17.408-18.944-17.408-40.448-26.112-64-25.088-23.552 1.024-44.032 9.216-61.44 25.088-2.56 2.56-9.216 9.216-19.968 18.944-12.8 12.288-26.112 24.064-39.424 36.352-15.872 14.336-32.768 30.208-52.224 47.616-18.944 17.408-38.4 34.816-57.344 52.736-45.568 41.472-96.256 87.552-152.064 138.752V875.52c0 16.384 5.632 28.672 17.408 37.888 11.776 8.704 27.136 13.312 47.104 13.312h637.44c18.944-0.512 34.304-6.656 45.568-18.432s16.896-24.576 16.896-39.936v-193.536c-51.2-47.104-101.888-94.72-153.088-141.824-18.432-17.92-37.888-35.328-56.832-53.248z m-53.248 264.704c7.168 0.512 12.8 3.584 16.896 8.192 4.096 5.12 6.144 10.752 7.168 17.408-0.512 7.168-3.072 12.8-7.168 17.92-4.096 4.608-9.728 7.168-16.896 8.192l-78.336-0.512v43.008c-1.024 23.04-13.824 34.816-37.888 34.816-11.776 0-21.504-3.072-27.648-8.704-6.656-5.632-10.24-14.336-10.752-26.112v-42.496H396.317491c-7.168-0.512-12.8-3.584-16.896-9.216-4.096-5.632-6.144-11.776-7.168-18.432 1.024-6.656 3.072-12.288 7.168-16.896 4.096-4.608 9.728-6.656 16.896-7.168h78.336v-25.6l-78.336-0.512c-7.168-0.512-12.8-3.072-16.896-7.68-4.096-4.608-6.144-10.24-7.168-17.408 1.024-6.656 3.072-12.288 7.168-16.896 4.096-4.096 9.728-6.656 16.896-7.168h58.368l-54.784-96.256c-2.56-3.072-5.12-7.168-7.68-12.288s-3.584-10.752-3.072-16.384c1.536-7.68 4.096-13.824 8.192-18.432 4.096-4.608 11.776-7.68 23.04-9.216 6.656 0.512 12.288 2.56 17.408 6.656s9.216 8.192 12.8 12.8l61.952 113.152 68.096-114.176c3.072-4.608 7.68-8.704 12.8-12.288s10.752-5.632 17.408-6.656c4.096 0 7.68 1.024 11.264 1.536s6.144 2.048 8.704 4.096 4.608 4.608 6.656 8.192c1.536 3.584 3.072 8.192 4.096 13.824 0 7.68-2.56 15.36-8.192 22.528l-62.976 102.4h59.904c7.168 0.512 12.8 3.072 16.896 7.168 4.096 4.608 6.144 9.728 7.168 16.896-0.512 7.168-3.072 12.8-7.168 17.92-4.096 5.12-9.728 7.68-16.896 8.192l-77.824 0.512v25.088h76.8z" p-id="3881"></path><path d="M1000.989491 526.336l-25.6-25.6c-12.8-12.8-28.672-28.16-48.128-46.592-18.944-17.92-39.936-38.4-62.464-60.928-23.04-22.528-46.592-45.568-69.632-67.584-23.552-22.528-47.104-45.056-70.144-67.584-23.04-22.528-44.032-42.496-62.464-60.928l-47.616-46.08c-12.8-12.8-21.504-20.48-25.6-24.064-20.992-20.48-46.592-30.208-76.288-30.208-29.696 0.512-57.856 13.312-83.456 38.4-3.584 3.584-15.36 14.848-36.352 34.304-20.992 19.456-45.568 42.496-74.24 69.632S258.077491 296.448 224.797491 327.68c-31.232 29.184-62.976 58.368-94.208 87.552-29.184 27.136-54.272 50.688-75.264 70.144-20.992 19.968-33.792 31.744-37.888 35.84-10.752 10.24-16.896 24.064-17.408 41.472-0.512 17.408 5.632 32.256 19.456 44.544 12.288 10.752 26.624 15.872 44.032 15.36 16.896-0.512 30.72-5.12 40.96-13.312 3.584-2.56 13.312-11.776 30.208-27.136 16.896-15.36 36.352-33.792 59.904-55.808 23.04-22.016 48.128-45.056 75.264-70.144 26.112-24.064 51.712-48.128 77.312-72.192 24.576-23.04 46.08-43.52 65.024-60.928s31.232-29.184 38.4-35.328c20.48-18.432 40.96-27.648 61.952-28.672 20.992-0.512 42.496 8.704 64 28.672 4.608 4.096 15.872 14.848 33.792 31.744 17.408 16.896 38.912 36.864 62.976 60.416 24.576 23.04 50.688 47.616 77.824 73.728 25.6 24.576 51.712 49.152 77.312 73.216 20.48 19.456 41.472 38.912 61.952 58.88 17.408 16.384 27.648 25.6 31.232 28.672 10.24 8.704 23.552 13.824 40.96 14.336 16.896 0.512 31.744-4.608 45.056-16.384 11.776-10.752 16.896-24.576 16.384-40.96-1.024-16.384-8.704-31.232-23.04-45.056z" p-id="3882"></path></svg>